<svg preserveAspectRatio="none" overflow="visible" style="display: block;" width="32" height="32" viewBox="0 0 32 32" fill="none" xmlns="http://www.w3.org/2000/svg">
<g id="Frame 36">
<rect width="32" height="32" rx="16" fill="#4CAF50" fill-opacity="0.1"/>
<path id="fork.knife" d="M13.302 22.1548C13.0364 22.1548 12.8254 22.0826 12.6692 21.938C12.5169 21.7935 12.4446 21.5943 12.4524 21.3404L12.5696 14.6548C12.5696 14.5259 12.5481 14.4243 12.5051 14.3501C12.4661 14.2759 12.3938 14.2154 12.2883 14.1685C12.0149 14.0435 11.7922 13.9087 11.6204 13.7642C11.4485 13.6158 11.3235 13.4263 11.2454 13.1958C11.1672 12.9615 11.1379 12.6568 11.1575 12.2818L11.3274 8.69583C11.3352 8.5513 11.3782 8.43997 11.4563 8.36185C11.5344 8.27982 11.6419 8.2388 11.7786 8.2388C11.9114 8.2388 12.0129 8.27982 12.0833 8.36185C12.1575 8.44388 12.1926 8.55911 12.1887 8.70755L12.1419 12.1822C12.1419 12.4165 12.2512 12.5337 12.47 12.5337C12.5715 12.5337 12.6536 12.5044 12.7161 12.4458C12.7786 12.3833 12.8098 12.3013 12.8098 12.1997L12.8684 8.59622C12.8723 8.4556 12.9133 8.34427 12.9915 8.26224C13.0696 8.18021 13.1731 8.13919 13.302 8.13919C13.4387 8.13919 13.5442 8.18021 13.6184 8.26224C13.6965 8.34427 13.7376 8.4556 13.7415 8.59622L13.8059 12.1997C13.8059 12.3052 13.8352 12.3872 13.8938 12.4458C13.9563 12.5044 14.0383 12.5337 14.1399 12.5337C14.2376 12.5337 14.3157 12.5044 14.3743 12.4458C14.4329 12.3833 14.4622 12.2954 14.4622 12.1822L14.4211 8.70755C14.4172 8.55911 14.4524 8.44388 14.5266 8.36185C14.6008 8.27982 14.7024 8.2388 14.8313 8.2388C15.1165 8.2388 15.2669 8.39114 15.2825 8.69583L15.4524 12.2818C15.468 12.6568 15.4368 12.9615 15.3586 13.1958C15.2844 13.4263 15.1614 13.6158 14.9895 13.7642C14.8176 13.9087 14.595 14.0435 14.3215 14.1685C14.22 14.2154 14.1477 14.2759 14.1047 14.3501C14.0618 14.4243 14.0403 14.5259 14.0403 14.6548L14.1633 21.3404C14.1633 21.5943 14.0872 21.7935 13.9348 21.938C13.7825 22.0826 13.5715 22.1548 13.302 22.1548ZM18.0188 16.9107C18.0227 16.7896 18.0012 16.688 17.9544 16.606C17.9075 16.524 17.8313 16.4458 17.7258 16.3716L17.4387 16.1783C17.2629 16.0611 17.136 15.9263 17.0579 15.774C16.9836 15.6216 16.9465 15.438 16.9465 15.2232V14.8892C16.9465 14.3072 16.9856 13.7154 17.0637 13.1138C17.1458 12.5083 17.261 11.9204 17.4094 11.3501C17.5579 10.7798 17.7317 10.2544 17.9309 9.77396C18.134 9.29349 18.3547 8.88333 18.593 8.54349C18.6946 8.40677 18.7883 8.30521 18.8743 8.2388C18.9602 8.17239 19.0618 8.13919 19.179 8.13919C19.304 8.13919 19.4094 8.18021 19.4954 8.26224C19.5852 8.34427 19.6301 8.4595 19.6301 8.60794V21.3638C19.6301 21.6138 19.552 21.8072 19.3958 21.9439C19.2434 22.0845 19.0325 22.1548 18.7629 22.1548C18.5012 22.1548 18.2922 22.0806 18.136 21.9322C17.9797 21.7876 17.9036 21.5826 17.9075 21.3169L18.0188 16.9107Z" fill="#4CAF50"/>
</g>
</svg>
